<svg xmlns="http://www.w3.org/2000/svg" width="200" height="340" viewBox="-15 10 230 335">
  <defs>
    <marker id="pijl" markerWidth="8" markerHeight="8" refX="8" refY="4" orient="auto">
      <polygon points="0 0, 8 4, 0 8" fill="#1a4fa0"/>
    </marker>
  </defs>

  <!-- Ladder -->
  <rect x="20"  y="10" width="15" height="330" fill="#A8D8A8" stroke="#8BC68B" stroke-width="2" rx="5"/>
  <rect x="165" y="10" width="15" height="330" fill="#A8D8A8" stroke="#8BC68B" stroke-width="2" rx="5"/>

  <rect x="35" y="25"  width="130" height="12" fill="#FFE5A3" stroke="#FFD580" stroke-width="2" rx="4"/>
  <text x="100" y="37"  text-anchor="middle" font-size="16" font-family="Arial" font-weight="600" fill="#2C3E50">km<tspan dy="-6" font-size="11">2</tspan></text>
  <rect x="35" y="73"  width="130" height="12" fill="#FFE5A3" stroke="#FFD580" stroke-width="2" rx="4"/>
  <text x="100" y="85"  text-anchor="middle" font-size="16" font-family="Arial" font-weight="600" fill="#2C3E50">hm<tspan dy="-6" font-size="11">2</tspan></text>
  <rect x="35" y="121" width="130" height="12" fill="#FFE5A3" stroke="#FFD580" stroke-width="2" rx="4"/>
  <text x="100" y="133" text-anchor="middle" font-size="16" font-family="Arial" font-weight="600" fill="#2C3E50">dam<tspan dy="-6" font-size="11">2</tspan></text>
  <rect x="35" y="169" width="130" height="12" fill="#FFE5A3" stroke="#FFD580" stroke-width="2" rx="4"/>
  <text x="100" y="181" text-anchor="middle" font-size="16" font-family="Arial" font-weight="600" fill="#2C3E50">m<tspan dy="-6" font-size="11">2</tspan></text>
  <rect x="35" y="217" width="130" height="12" fill="#FFE5A3" stroke="#FFD580" stroke-width="2" rx="4"/>
  <text x="100" y="229" text-anchor="middle" font-size="16" font-family="Arial" font-weight="600" fill="#2C3E50">dm<tspan dy="-6" font-size="11">2</tspan></text>
  <rect x="35" y="265" width="130" height="12" fill="#FFE5A3" stroke="#FFD580" stroke-width="2" rx="4"/>
  <text x="100" y="277" text-anchor="middle" font-size="16" font-family="Arial" font-weight="600" fill="#2C3E50">cm<tspan dy="-6" font-size="11">2</tspan></text>
  <rect x="35" y="313" width="130" height="12" fill="#FFE5A3" stroke="#FFD580" stroke-width="2" rx="4"/>
  <text x="100" y="325" text-anchor="middle" font-size="16" font-family="Arial" font-weight="600" fill="#2C3E50">mm<tspan dy="-6" font-size="11">2</tspan></text>

  <!-- Pijl links: dam² → cm² (naar beneden) -->
  <line x1="55" y1="137" x2="55" y2="262" stroke="#1a4fa0" stroke-width="3" marker-end="url(#pijl)"/>

  <!-- Pijl rechts: dm² → km² (naar boven) -->
  <line x1="145" y1="213" x2="145" y2="40" stroke="#1a4fa0" stroke-width="3" marker-end="url(#pijl)"/>

</svg>
