<svg xmlns="http://www.w3.org/2000/svg" width="220" height="220" viewBox="0 0 220 220">
  <g stroke="#ccc" stroke-width="1">
    <line x1="20" y1="20" x2="20" y2="200"/>
    <line x1="50" y1="20" x2="50" y2="200"/>
    <line x1="80" y1="20" x2="80" y2="200"/>
    <line x1="110" y1="20" x2="110" y2="200"/>
    <line x1="140" y1="20" x2="140" y2="200"/>
    <line x1="170" y1="20" x2="170" y2="200"/>
    <line x1="200" y1="20" x2="200" y2="200"/>
    <line x1="20" y1="20" x2="200" y2="20"/>
    <line x1="20" y1="50" x2="200" y2="50"/>
    <line x1="20" y1="80" x2="200" y2="80"/>
    <line x1="20" y1="110" x2="200" y2="110"/>
    <line x1="20" y1="140" x2="200" y2="140"/>
    <line x1="20" y1="170" x2="200" y2="170"/>
    <line x1="20" y1="200" x2="200" y2="200"/>
  </g>
  <polygon points="50,50 80,50 80,140 140,140 140,110 170,110 170,170 50,170"
           fill="rgba(168,216,229,0.6)" stroke="#333" stroke-width="2"/>
  <text x="65"  y="70"  text-anchor="middle" font-size="14" font-family="Arial" fill="#6B9BD1" font-weight="600">1</text>
  <text x="65"  y="100" text-anchor="middle" font-size="14" font-family="Arial" fill="#6B9BD1" font-weight="600">2</text>
  <text x="65"  y="130" text-anchor="middle" font-size="14" font-family="Arial" fill="#6B9BD1" font-weight="600">3</text>
  <text x="65"  y="160" text-anchor="middle" font-size="14" font-family="Arial" fill="#6B9BD1" font-weight="600">4</text>
  <text x="95"  y="160" text-anchor="middle" font-size="14" font-family="Arial" fill="#6B9BD1" font-weight="600">5</text>
  <text x="125" y="160" text-anchor="middle" font-size="14" font-family="Arial" fill="#6B9BD1" font-weight="600">6</text>
  <text x="155" y="160" text-anchor="middle" font-size="14" font-family="Arial" fill="#6B9BD1" font-weight="600">7</text>
  <text x="155" y="130" text-anchor="middle" font-size="14" font-family="Arial" fill="#6B9BD1" font-weight="600">8</text>
  <circle cx="140" cy="50" r="2.5" fill="#000"/>
  <circle cx="170" cy="50" r="2.5" fill="#000"/>
  <line x1="140" y1="50" x2="170" y2="50" stroke="#000" stroke-width="1.5"/>
  <text x="155" y="45" text-anchor="middle" font-size="13" font-family="Arial" fill="#000" font-weight="600">1</text>
</svg>
